<svg xmlns="http://www.w3.org/2000/svg" width="200" height="200" viewBox="0 0 200 200">
  <title>WeChat QR Code — Muntasir Al Mamun</title>
  <!-- White background -->
  <rect width="200" height="200" fill="#ffffff" rx="12"/>

  <!-- Top-left finder pattern (outer) -->
  <rect x="10" y="10" width="56" height="56" fill="#07c160" rx="4"/>
  <rect x="17" y="17" width="42" height="42" fill="#ffffff" rx="2"/>
  <rect x="24" y="24" width="28" height="28" fill="#07c160" rx="2"/>

  <!-- Top-right finder pattern (outer) -->
  <rect x="134" y="10" width="56" height="56" fill="#07c160" rx="4"/>
  <rect x="141" y="17" width="42" height="42" fill="#ffffff" rx="2"/>
  <rect x="148" y="24" width="28" height="28" fill="#07c160" rx="2"/>

  <!-- Bottom-left finder pattern (outer) -->
  <rect x="10" y="134" width="56" height="56" fill="#07c160" rx="4"/>
  <rect x="17" y="141" width="42" height="42" fill="#ffffff" rx="2"/>
  <rect x="24" y="148" width="28" height="28" fill="#07c160" rx="2"/>

  <!-- Timing pattern (horizontal) -->
  <rect x="76" y="10" width="8" height="8" fill="#07c160"/>
  <rect x="92" y="10" width="8" height="8" fill="#07c160"/>
  <rect x="108" y="10" width="8" height="8" fill="#07c160"/>
  <rect x="124" y="10" width="8" height="8" fill="#07c160"/>

  <!-- Timing pattern (vertical) -->
  <rect x="10" y="76" width="8" height="8" fill="#07c160"/>
  <rect x="10" y="92" width="8" height="8" fill="#07c160"/>
  <rect x="10" y="108" width="8" height="8" fill="#07c160"/>
  <rect x="10" y="124" width="8" height="8" fill="#07c160"/>

  <!-- Data modules — centre area -->
  <rect x="76" y="76" width="8" height="8" fill="#07c160"/>
  <rect x="92" y="76" width="8" height="8" fill="#07c160"/>
  <rect x="108" y="76" width="8" height="8" fill="#07c160"/>
  <rect x="124" y="76" width="8" height="8" fill="#07c160"/>
  <rect x="76" y="92" width="8" height="8" fill="#07c160"/>
  <rect x="108" y="92" width="8" height="8" fill="#07c160"/>
  <rect x="124" y="92" width="8" height="8" fill="#07c160"/>
  <rect x="76" y="108" width="8" height="8" fill="#07c160"/>
  <rect x="92" y="108" width="8" height="8" fill="#07c160"/>
  <rect x="124" y="108" width="8" height="8" fill="#07c160"/>
  <rect x="92" y="124" width="8" height="8" fill="#07c160"/>
  <rect x="108" y="124" width="8" height="8" fill="#07c160"/>

  <!-- Data modules — bottom-right area -->
  <rect x="134" y="76" width="8" height="8" fill="#07c160"/>
  <rect x="150" y="76" width="8" height="8" fill="#07c160"/>
  <rect x="166" y="76" width="8" height="8" fill="#07c160"/>
  <rect x="182" y="76" width="8" height="8" fill="#07c160"/>
  <rect x="134" y="92" width="8" height="8" fill="#07c160"/>
  <rect x="166" y="92" width="8" height="8" fill="#07c160"/>
  <rect x="150" y="108" width="8" height="8" fill="#07c160"/>
  <rect x="182" y="108" width="8" height="8" fill="#07c160"/>
  <rect x="134" y="124" width="8" height="8" fill="#07c160"/>
  <rect x="166" y="124" width="8" height="8" fill="#07c160"/>
  <rect x="134" y="140" width="8" height="8" fill="#07c160"/>
  <rect x="150" y="140" width="8" height="8" fill="#07c160"/>
  <rect x="182" y="140" width="8" height="8" fill="#07c160"/>
  <rect x="166" y="156" width="8" height="8" fill="#07c160"/>
  <rect x="182" y="156" width="8" height="8" fill="#07c160"/>
  <rect x="134" y="172" width="8" height="8" fill="#07c160"/>
  <rect x="150" y="172" width="8" height="8" fill="#07c160"/>
  <rect x="182" y="172" width="8" height="8" fill="#07c160"/>
  <rect x="166" y="182" width="8" height="8" fill="#07c160"/>

  <!-- Data modules — below bottom-left finder -->
  <rect x="76" y="140" width="8" height="8" fill="#07c160"/>
  <rect x="92" y="140" width="8" height="8" fill="#07c160"/>
  <rect x="108" y="156" width="8" height="8" fill="#07c160"/>
  <rect x="76" y="156" width="8" height="8" fill="#07c160"/>
  <rect x="92" y="172" width="8" height="8" fill="#07c160"/>
  <rect x="108" y="172" width="8" height="8" fill="#07c160"/>
  <rect x="76" y="182" width="8" height="8" fill="#07c160"/>
  <rect x="108" y="182" width="8" height="8" fill="#07c160"/>
</svg>
